<svg width="23" height="16" viewBox="0 0 23 16" fill="none" xmlns="http://www.w3.org/2000/svg">
<path d="M1.08746 6.85986C0.535179 6.85986 0.0874634 7.30758 0.0874634 7.85986C0.0874634 8.41215 0.535179 8.85986 1.08746 8.85986V6.85986ZM21.7946 8.56697C22.1851 8.17645 22.1851 7.54328 21.7946 7.15276L15.4306 0.788795C15.0401 0.398271 14.4069 0.398271 14.0164 0.788795C13.6259 1.17932 13.6259 1.81248 14.0164 2.20301L19.6733 7.85986L14.0164 13.5167C13.6259 13.9072 13.6259 14.5404 14.0164 14.9309C14.4069 15.3215 15.0401 15.3215 15.4306 14.9309L21.7946 8.56697ZM1.08746 8.85986H21.0875V6.85986H1.08746V8.85986Z" fill="#1E1E1E"/>
</svg>
