<svg xmlns="http://www.w3.org/2000/svg" width="32" height="33" viewBox="0 0 32 33" fill="none"><path d="M24.4372 30.6127C23.2172 30.6127 21.5035 30.1715 18.9372 28.7377C15.8166 26.9877 13.4028 25.3721 10.2991 22.2765C7.3066 19.2858 5.85035 17.3496 3.81222 13.6408C1.50972 9.45333 1.90222 7.25833 2.34097 6.3202C2.86347 5.19895 3.63472 4.52833 4.6316 3.8627C5.19782 3.49172 5.79702 3.17371 6.4216 2.9127C6.4841 2.88583 6.54222 2.8602 6.5941 2.83708C6.90347 2.6977 7.37222 2.48708 7.96597 2.71208C8.36222 2.86083 8.71597 3.1652 9.26972 3.71208C10.4053 4.83208 11.9572 7.32645 12.5297 8.55145C12.9141 9.37708 13.1685 9.92208 13.1691 10.5333C13.1691 11.249 12.8091 11.8008 12.3722 12.3965C12.2903 12.5083 12.2091 12.6152 12.1303 12.719C11.6547 13.344 11.5503 13.5246 11.6191 13.8471C11.7585 14.4952 12.7978 16.4246 14.506 18.129C16.2141 19.8333 18.0878 20.8071 18.7385 20.9458C19.0747 21.0177 19.2591 20.909 19.9041 20.4165C19.9966 20.3458 20.0916 20.2727 20.191 20.1996C20.8572 19.704 21.3835 19.3533 22.0822 19.3533H22.086C22.6941 19.3533 23.2147 19.6171 24.0772 20.0521C25.2022 20.6196 27.7716 22.1515 28.8985 23.2883C29.4466 23.8408 29.7522 24.1933 29.9016 24.589C30.1266 25.1846 29.9147 25.6515 29.7766 25.964C29.7535 26.0158 29.7278 26.0727 29.701 26.1358C29.4379 26.7593 29.118 27.3572 28.7453 27.9221C28.081 28.9158 27.4078 29.6852 26.2841 30.2083C25.7071 30.4813 25.0755 30.6195 24.4372 30.6127Z" fill="#428D41"></path></svg>