<svg xmlns="http://www.w3.org/2000/svg" width="32" height="33" viewBox="0 0 32 33" fill="none"><path d="M16.0003 15.4167C15.1163 15.4167 14.2684 15.0655 13.6433 14.4404C13.0182 13.8152 12.667 12.9674 12.667 12.0833C12.667 11.1993 13.0182 10.3514 13.6433 9.72631C14.2684 9.10119 15.1163 8.75 16.0003 8.75C16.8844 8.75 17.7322 9.10119 18.3573 9.72631C18.9825 10.3514 19.3337 11.1993 19.3337 12.0833C19.3337 12.5211 19.2474 12.9545 19.0799 13.3589C18.9124 13.7634 18.6669 14.1308 18.3573 14.4404C18.0478 14.7499 17.6804 14.9954 17.2759 15.1629C16.8715 15.3304 16.4381 15.4167 16.0003 15.4167ZM16.0003 2.75C13.525 2.75 11.151 3.73333 9.40066 5.48367C7.65032 7.23401 6.66699 9.60798 6.66699 12.0833C6.66699 19.0833 16.0003 29.4167 16.0003 29.4167C16.0003 29.4167 25.3337 19.0833 25.3337 12.0833C25.3337 9.60798 24.3503 7.23401 22.6 5.48367C20.8496 3.73333 18.4757 2.75 16.0003 2.75Z" fill="#428D41"></path></svg>