<svg xmlns="http://www.w3.org/2000/svg" width="32" height="33" viewBox="0 0 32 33" fill="none"><path d="M29.3337 12.4565V23.3125C29.3337 24.4194 28.9103 25.4843 28.1501 26.2888C27.3899 27.0933 26.3507 27.5765 25.2457 27.6392L25.0003 27.6458H7.00033C5.89348 27.6459 4.82855 27.2224 4.02402 26.4623C3.21948 25.7021 2.73632 24.6629 2.67366 23.5578L2.66699 23.3125V12.4565L15.5363 19.1978C15.6795 19.2728 15.8387 19.312 16.0003 19.312C16.1619 19.312 16.3212 19.2728 16.4643 19.1978L29.3337 12.4565ZM7.00033 6.3125H25.0003C26.0744 6.31237 27.1103 6.71116 27.907 7.43152C28.7038 8.15189 29.2046 9.14248 29.3123 10.2112L16.0003 17.1845L2.68833 10.2112C2.79169 9.18492 3.25773 8.22919 4.00266 7.51578C4.74759 6.80238 5.72257 6.37808 6.75233 6.31917L7.00033 6.3125Z" fill="#428D41"></path></svg>