<svg xmlns="http://www.w3.org/2000/svg" width="23" height="16" viewBox="0 0 23 16" fill="none"><path d="M1.3125 7.07031C0.760215 7.07031 0.3125 7.51803 0.3125 8.07031C0.3125 8.6226 0.760215 9.07031 1.3125 9.07031V7.07031ZM22.0196 8.77742C22.4101 8.3869 22.4101 7.75373 22.0196 7.36321L15.6556 0.999245C15.2651 0.60872 14.632 0.60872 14.2414 0.999245C13.8509 1.38977 13.8509 2.02293 14.2414 2.41346L19.8983 8.07031L14.2414 13.7272C13.8509 14.1177 13.8509 14.7509 14.2414 15.1414C14.632 15.5319 15.2651 15.5319 15.6556 15.1414L22.0196 8.77742ZM1.3125 9.07031H21.3125V7.07031H1.3125V9.07031Z" fill="#1E1E1E"></path></svg>